#!OML:ASF I:\golf\golf\golf 2\Subject 1\2002-09-07\Subject1.ASF
:FULLY-SPECIFIED
:DEGREES
146
root -0.0603082 18.0293 -7.752 10.7185 -4.28099 -3.37608
lowerback 1.11647 1.30455 -2.47948
upperback 3.39342 1.65177 4.6495
thorax 2.66987 0.694043 6.24409
lowerneck -14.2884 1.79627 1.55589
upperneck 41.0124 5.86513 -8.48267
head 18.0759 1.47838 -3.13666
rclavicle -6.95746e-015 -1.66979e-014
rhumerus -23.6462 2.54341 -80.9417
rradius 28.2323
rwrist -7.64666
rhand -18.7885 8.66362
rfingers 7.12502
rthumb 7.50933 -21.1831
lclavicle -6.95746e-015 -1.66979e-014
lhumerus -29.283 -19.7804 94.0211
lradius 46.1415
lwrist 0.159918
lhand -16.1356 26.7673
lfingers 7.12502
lthumb 10.0693 56.5064
rfemur -13.0965 0.725536 26.7863
rtibia 25.0416
rfoot -16.7718 -6.89776
rtoes 2.01199
lfemur -35.0228 9.32821 -9.91634
ltibia 49.9425
lfoot -8.22413 -6.30768
ltoes -17.9206
147
root -0.0589257 18.0322 -7.73009 10.7969 -4.16637 -3.36133
lowerback 1.2667 1.30327 -2.52739
upperback 3.36581 1.65036 4.66349
thorax 2.55523 0.695436 6.28137
lowerneck -14.0524 1.77683 1.59368
upperneck 40.8873 5.83816 -8.55946
head 17.9403 1.47126 -3.17631
rclavicle 4.17448e-015 1.03368e-014
rhumerus -23.757 2.858 -80.936
rradius 28.5181
rwrist -7.77177
rhand -18.9056 8.6952
rfingers 7.12502
rthumb 7.39624 -21.1555
lclavicle 4.17448e-015 1.03368e-014
lhumerus -29.5074 -20.6322 94.3242
lradius 46.4847
lwrist -0.494605
lhand -16.5866 25.7161
lfingers 7.12502
lthumb 9.63426 55.4758
rfemur -13.0553 0.735531 26.7818
rtibia 24.9434
rfoot -16.7486 -7.03333
rtoes 2.17407
lfemur -35.2705 9.32698 -9.96379
ltibia 48.8946
lfoot -8.22875 -5.4283
ltoes -18.034
148
root -0.055225 18.0373 -7.70905 10.9233 -4.08925 -3.40265
lowerback 1.39205 1.32711 -2.35445
upperback 3.68505 1.67316 4.62331
thorax 2.81857 0.698684 6.14394
lowerneck -14.8552 1.76978 1.39055
upperneck 40.7734 5.84002 -8.4064
head 18.0751 1.44235 -3.06091
rclavicle 6.55989e-015 3.33958e-014
rhumerus -23.0054 3.09483 -80.9595
rradius 28.6258
rwrist -7.89573
rhand -19.0448 8.85064
rfingers 7.12502
rthumb 7.26189 -21.0047
lclavicle 6.55989e-015 3.33958e-014
lhumerus -28.8395 -21.4235 94.2005
lradius 46.7588
lwrist -1.68818
lhand -16.9027 24.6264
lfingers 7.12502
lthumb 9.32924 54.4
rfemur -13.073 0.699915 26.8247
rtibia 24.8547
rfoot -16.6681 -7.10991
rtoes 1.92666
lfemur -35.4995 9.28663 -9.95044
ltibia 47.7532
lfoot -8.07122 -4.56925
ltoes -16.1416
149
root -0.0519532 18.0402 -7.68674 11.0057 -4.00656 -3.43461
lowerback 1.59214 1.34985 -2.22124
upperback 3.81393 1.70042 4.56092
thorax 2.84111 0.713855 5.99886
lowerneck -15.1967 1.73061 1.32492
upperneck 40.7772 5.76691 -8.30227
head 18.1547 1.40841 -3.01435
rclavicle 1.19271e-015 -4.77083e-015
rhumerus -22.6616 3.24303 -81.0326
rradius 28.7151
rwrist -7.97934
rhand -19.1688 8.83295
rfingers 7.12502
rthumb 7.14226 -21.0265
lclavicle 1.19271e-015 -4.77083e-015
lhumerus -28.6638 -22.2717 94.2047
lradius 47.0998
lwrist -2.72875
lhand -16.6409 24.2182
lfingers 7.12502
lthumb 9.5818 53.9803
rfemur -13.0465 0.563391 26.866
rtibia 24.7723
rfoot -16.5854 -7.20315
rtoes 0.366836
lfemur -35.6327 9.24809 -9.94084
ltibia 46.5248
lfoot -7.86343 -3.81262
ltoes -13.2723
150
root -0.0491341 18.0346 -7.66451 11.0784 -3.92786 -3.44195
lowerback 1.80951 1.35564 -2.21159
upperback 3.87232 1.70669 4.54389
thorax 2.77923 0.717825 5.97035
lowerneck -15.2926 1.7331 1.35275
upperneck 40.7365 5.7728 -8.33305
head 18.1599 1.40959 -3.03088
rclavicle -2.84262e-014 -5.32743e-014
rhumerus -22.4896 3.64882 -81.1034
rradius 28.879
rwrist -8.19505
rhand -19.2309 8.72473
rfingers 7.12502
rthumb 7.08228 -21.1368
lclavicle -2.84262e-014 -5.32743e-014
lhumerus -28.721 -23.2112 94.4071
lradius 47.3515
lwrist -3.06726
lhand -16.1228 23.9827
lfingers 7.12502
lthumb 10.0817 53.7212
rfemur -13.0031 0.400594 26.8819
rtibia 24.6774
rfoot -16.4956 -7.27885
rtoes -1.32505
lfemur -35.7674 9.21514 -9.96779
ltibia 45.2102
lfoot -7.61105 -3.08598
ltoes -12.1213
151
root -0.0462347 18.0303 -7.64028 11.1792 -3.79926 -3.41608
lowerback 1.97314 1.34179 -2.27183
upperback 3.94935 1.68582 4.55363
thorax 2.7681 0.70424 6.01244
lowerneck -15.3371 1.74592 1.32278
upperneck 40.5818 5.79603 -8.34745
head 18.0818 1.41356 -3.01816
rclavicle -1.03368e-014 -1.27222e-014
rhumerus -22.282 4.21077 -81.1426
rradius 29.0785
rwrist -8.42348
rhand -19.2995 8.70339
rfingers 7.12502
rthumb 7.01607 -21.1603
lclavicle -1.03368e-014 -1.27222e-014
lhumerus -28.6415 -24.3761 94.6283
lradius 47.4586
lwrist -3.17407
lhand -15.7808 23.4547
lfingers 7.12502
lthumb 10.4116 53.1769
rfemur -12.9859 0.370918 26.8599
rtibia 24.6004
rfoot -16.5663 -7.25779
rtoes 0.0313986
lfemur -35.9106 9.09265 -10.0163
ltibia 43.8001
lfoot -7.33555 -2.43691
ltoes -11.6341
